<svg width="40" height="32" viewBox="0 0 40 32" fill="none" xmlns="http://www.w3.org/2000/svg">
<path d="M11.9694 14.0494C12.3918 14.0983 12.8202 14.1497 13.2426 14.2016C14.665 14.3764 15.7795 14.5293 16.3678 14.6114L19.3573 6.05702L22.6331 15.4307C22.6692 15.4364 22.7053 15.4436 22.7404 15.4536C24.66 15.9965 26.5879 16.5662 28.5065 17.1564L22.2524 0.261719H16.4624L11.3809 13.9884C11.6864 14.0182 11.9022 14.0414 11.9698 14.0494H11.9694Z" fill="#FFFEFC"/>
<path d="M29.3614 21.2853C29.2694 21.2767 27.5808 21.1211 25.3811 21.1211C24.9154 21.1211 24.4589 21.128 24.0137 21.1419L25.2613 25.0669H31.436L30.0645 21.3621C29.8311 21.3359 29.5968 21.3104 29.3614 21.285V21.2853Z" fill="#FFFEFC"/>
<path d="M12.8845 20.3201L12.8809 20.3194C12.6419 20.2747 11.9977 20.1519 11.1814 19.9794C10.3936 19.8129 9.81261 19.6904 9.31574 19.5723L7.28125 25.068H13.4559L14.8508 20.6792C14.158 20.5554 13.4857 20.4333 12.8842 20.3204L12.8845 20.3201Z" fill="#FFFEFC"/>
<path d="M6.47608 23.9971C5.27247 22.1175 4.46807 19.9579 4.18306 17.6377C3.89109 17.4673 3.59946 17.2965 3.30749 17.126C3.30749 17.126 3.30286 17.123 3.29657 17.119C3.29657 17.119 3.28598 17.1124 3.27538 17.1055C2.60472 16.6804 1.12338 15.4914 1.37695 14.4791C1.58715 13.6389 2.91357 13.2364 3.37701 13.1424C3.55709 13.106 3.92685 13.0497 4.26482 13.0116C4.68026 12.9646 5.02751 12.9408 5.27412 12.9276C5.52471 11.6481 6.26555 8.78143 8.66946 6.10044C10.8609 3.6568 13.3343 2.5942 14.5594 2.16022L15.3575 0.00390625C9.49339 1.49717 4.9037 6.17989 3.54418 12.0963C1.48453 12.5287 0.213389 13.2477 0.0243723 14.2381C-0.190795 15.3659 1.02871 16.6827 3.28664 18.0078C3.64878 20.6137 4.62928 23.0219 6.07455 25.0796L6.47542 23.9968L6.47608 23.9971Z" fill="#FFFEFC"/>
<path d="M32.6557 25.1214C33.3588 24.127 33.9534 23.0505 34.4211 21.9084C34.104 21.8641 33.7835 21.8204 33.4605 21.7773C33.1215 22.5685 32.7176 23.3252 32.2559 24.0409L32.6557 25.1214Z" fill="#FFFEFC"/>
<path d="M30.5799 26.1914C27.785 29.1889 23.8015 31.0631 19.3799 31.0631C14.9584 31.0631 10.9745 29.1889 8.17964 26.1914H6.92969C9.90992 29.7423 14.3814 31.9996 19.3799 31.9996C24.3784 31.9996 28.8496 29.7423 31.8302 26.1914H30.5799Z" fill="#FFFEFC"/>
<path d="M7.30322 21.7623C6.8133 20.7795 6.43891 19.7288 6.19991 18.6275C5.83677 18.4666 5.48986 18.3054 5.16016 18.1445C5.44649 19.8602 6.03638 21.4733 6.8719 22.9272L7.30322 21.7623Z" fill="#FFFEFC"/>
<path d="M27.9174 26.1953C25.5922 28.0991 22.6196 29.2418 19.3802 29.2418C16.1408 29.2418 13.1678 28.0991 10.843 26.1953H9.43945C12.0258 28.6588 15.5264 30.1713 19.3805 30.1713C23.2347 30.1713 26.7346 28.6588 29.3209 26.1953H27.9177H27.9174Z" fill="#FFFEFC"/>
<path d="M31.8607 22.9715C32.1069 22.5464 32.3327 22.1081 32.5353 21.6569C32.2149 21.6162 31.8918 21.5765 31.5667 21.5371C31.5227 21.6295 31.4773 21.7212 31.4316 21.8122L31.8607 22.9715Z" fill="#FFFEFC"/>
<path d="M37.3374 19.8975C36.4711 19.3132 35.8633 18.6568 35.4588 18.1351C35.4565 18.1321 35.4559 18.1288 35.4562 18.1252C35.5697 17.3506 35.6286 16.5584 35.6286 15.7524C35.6286 8.1586 30.4193 1.78201 23.3797 0.000422968C23.3694 -0.00222525 23.3605 0.00803656 23.3641 0.0179674L24.1493 2.13886C24.1506 2.1425 24.1536 2.14548 24.1573 2.14681C29.7715 4.11774 33.7971 9.46517 33.7971 15.7527C33.7971 16.7736 33.6902 17.7693 33.4886 18.7303C33.4872 18.7366 33.4909 18.7432 33.4968 18.7452C35.0934 19.3222 36.6902 19.8992 38.2868 20.4761C38.3023 20.4818 38.3119 20.4593 38.2971 20.452C37.9952 20.3043 37.6711 20.1223 37.3377 19.8975H37.3374Z" fill="#FFFEFC"/>
<path d="M39.1367 21.6932C36.8857 20.8905 34.5718 20.1003 32.1964 19.327C28.847 18.2373 25.5748 17.2469 22.389 16.3458C19.4154 15.9784 17.5921 15.7334 16.4508 15.5732C16.0446 15.5163 14.7612 15.3345 13.0306 15.1217C12.4947 15.0558 12.0541 15.0038 11.7634 14.9701C11.6247 14.9538 10.9001 14.877 10.0593 14.8118C8.59053 14.6976 7.49284 14.6705 6.44978 14.6447C6.31505 14.6414 5.9069 14.6294 5.3703 14.6337C5.1942 14.6351 4.86284 14.6493 4.20045 14.6774C3.99224 14.6864 3.79329 14.7062 3.48941 14.7552C3.33846 14.7797 3.213 14.8201 3.11833 14.8512C3.10575 14.8552 3.10674 14.8731 3.11932 14.8764C3.21896 14.9012 3.3186 14.926 3.41824 14.9512C3.62083 15.2961 3.93795 15.7639 4.41198 16.2396C4.53016 16.3581 5.02537 16.8467 5.9261 17.3703C6.79603 17.8765 7.51833 18.1115 8.27208 18.3518C9.07217 18.6071 9.8054 18.7617 11.2722 19.0715C12.1769 19.2625 12.8561 19.3896 12.9545 19.4078C15.5712 19.8984 19.4992 20.5624 20.4131 20.7164C20.57 20.6445 20.8064 20.5479 21.1033 20.4671C21.1033 20.4671 21.5012 20.3592 21.9273 20.3238C25.7089 20.01 29.3538 20.3625 29.3538 20.3625C32.3857 20.6879 34.5764 21.0037 35.5407 21.1464C36.9969 21.3619 38.2247 21.5638 39.1297 21.7187C39.1456 21.7214 39.1516 21.6985 39.1363 21.6929L39.1367 21.6932ZM13.3725 16.3763C12.0931 16.1598 10.8137 15.9433 9.53429 15.7268L10.5671 15.3577C11.0633 15.4014 11.5744 15.455 12.0994 15.5206C12.7214 15.598 13.3206 15.6867 13.8962 15.7837C13.7218 15.9814 13.547 16.179 13.3725 16.3763Z" fill="#FFFEFC"/>
</svg>
