<svg width="24" height="24" viewBox="0 0 24 24" fill="none" xmlns="http://www.w3.org/2000/svg">
<path d="M20 21H4C3.73478 21 3.48043 20.8946 3.29289 20.7071C3.10536 20.5196 3 20.2652 3 20V4C3 3.73478 3.10536 3.48043 3.29289 3.29289C3.48043 3.10536 3.73478 3 4 3H20C20.2652 3 20.5196 3.10536 20.7071 3.29289C20.8946 3.48043 21 3.73478 21 4V20C21 20.2652 20.8946 20.5196 20.7071 20.7071C20.5196 20.8946 20.2652 21 20 21ZM9 12C9 12.5933 9.17595 13.1734 9.50559 13.6667C9.83524 14.1601 10.3038 14.5446 10.8519 14.7716C11.4001 14.9987 12.0033 15.0581 12.5853 14.9424C13.1672 14.8266 13.7018 14.5409 14.1213 14.1213C14.5409 13.7018 14.8266 13.1672 14.9424 12.5853C15.0581 12.0033 14.9987 11.4001 14.7716 10.8519C14.5446 10.3038 14.1601 9.83524 13.6667 9.50559C13.1734 9.17595 12.5933 9 12 9C11.2044 9 10.4413 9.31607 9.87868 9.87868C9.31607 10.4413 9 11.2044 9 12Z" stroke="#FFFEFC" stroke-width="2" stroke-linecap="round" stroke-linejoin="round"/>
<path d="M16.9492 7H17.0492" stroke="#FFFEFC" stroke-width="2.5" stroke-linecap="round" stroke-linejoin="round"/>
</svg>
