<svg width="24" height="24" viewBox="0 0 24 24" fill="none" xmlns="http://www.w3.org/2000/svg">
<path d="M21 7H20C18.9391 7 17.9217 6.57857 17.1716 5.82843C16.4214 5.07828 16 4.06087 16 3H12V14.5C12 14.9261 11.8911 15.3452 11.6836 15.7174C11.476 16.0896 11.1768 16.4026 10.8143 16.6266C10.4518 16.8507 10.0381 16.9783 9.61237 16.9975C9.18666 17.0166 8.76312 16.9266 8.38197 16.7361C8.00081 16.5455 7.6747 16.2606 7.4346 15.9086C7.1945 15.5565 7.04837 15.1489 7.0101 14.7245C6.97183 14.3001 7.04269 13.8729 7.21594 13.4836C7.38919 13.0943 7.65909 12.7557 8 12.5V8.18C6.81158 8.46186 5.72662 9.07285 4.86947 9.94295C4.01233 10.8131 3.41767 11.9071 3.15366 13.0996C2.88966 14.2921 2.96698 15.5348 3.37678 16.6854C3.78658 17.836 4.51226 18.8479 5.47066 19.605C6.42906 20.3621 7.58139 20.8339 8.79558 20.9663C10.0098 21.0986 11.2367 20.8862 12.3357 20.3534C13.4347 19.8205 14.3614 18.9888 15.0095 17.9536C15.6576 16.9183 16.0009 15.7214 16 14.5V9.92C17.2154 10.625 18.595 10.9975 20 11H21V7Z" stroke="#FFFEFC" stroke-width="2" stroke-linecap="round" stroke-linejoin="round"/>
</svg>
