<svg width="24" height="24" viewBox="0 0 24 24" fill="none" xmlns="http://www.w3.org/2000/svg">
<path d="M18.94 7.91092C18.8212 7.05407 18.3883 6.27188 17.7254 5.71608C17.0626 5.16027 16.2169 4.87045 15.3524 4.90284C14.488 4.93523 13.6664 5.2875 13.0469 5.89135C12.4275 6.4952 12.0544 7.30758 12 8.17092C8.46 9.63092 5 6.00092 5 6.00092C4 12.0009 7 14.7509 7 14.7509C5.64 16.0009 3 16.0009 3 16.0009C3 16.0009 4.58 19.0009 11.58 19.0009C18.58 19.0009 19 11.0009 19 11.0009C19.6594 10.761 20.2171 10.3031 20.5808 9.70295C20.9445 9.10284 21.0924 8.39653 21 7.70092C20.3255 7.861 19.6329 7.93161 18.94 7.91092Z" stroke="#FFFEFC" stroke-width="2" stroke-linecap="round" stroke-linejoin="round"/>
</svg>
