<svg width="24" height="24" viewBox="0 0 24 24" fill="none" xmlns="http://www.w3.org/2000/svg">
<path d="M21 15.8C21.0024 16.5558 20.7195 17.2846 20.2078 17.8408C19.6961 18.397 18.9934 18.7395 18.24 18.8C16.75 18.91 14.68 19.01 12 19.01C9.32002 19.01 7.25002 18.91 5.76002 18.8C5.00667 18.7395 4.3039 18.397 3.79221 17.8408C3.28051 17.2846 2.99759 16.5558 3.00002 15.8V8.2C2.99759 7.44424 3.28051 6.71541 3.79221 6.15922C4.3039 5.60302 5.00667 5.26046 5.76002 5.2C7.25002 5.1 9.32002 5 12 5C14.68 5 16.75 5.1 18.24 5.21C18.9916 5.27032 19.693 5.61148 20.2044 6.16554C20.7159 6.71961 20.9999 7.44596 21 8.2V15.8ZM10 9V15L15 12L10 9Z" stroke="#FFFEFC" stroke-width="2" stroke-linecap="round" stroke-linejoin="round"/>
</svg>
